<?xml version="1.0" encoding="UTF-8"?>
<svg width="1024" height="1024" viewBox="0 0 1024 1024" xmlns="http://www.w3.org/2000/svg">
  
  <defs>
    <linearGradient id="grad1" x1="0%" y1="0%" x2="100%" y2="0%">
      <stop offset="0%" stop-color="#5E7CF4"/>
      <stop offset="100%" stop-color="#8A5CF6"/>
    </linearGradient>
    <filter id="softShadow" x="-50%" y="-50%" width="200%" height="200%">
      <feDropShadow dx="0" dy="2" stdDeviation="2" flood-opacity="0.18"/>
    </filter>
  </defs>

  <rect width="100%" height="100%" rx="120" ry="120" fill="white" fill-opacity="0"/>
  <g transform="translate(232,220)">
    
    <g id="braces" transform="scale(3.0)" stroke="url(#grad1)" fill="none" stroke-linecap="round" stroke-linejoin="round" filter="url(#softShadow)">
      <!-- Left brace -->
      <path d="M 30 15 Q 10 25 30 35 Q 50 45 30 55 Q 10 65 30 85" stroke-width="22"/>
      <!-- Right brace -->
      <path d="M 130 15 Q 150 25 130 35 Q 110 45 130 55 Q 150 65 130 85" stroke-width="22"/>
    </g>
    
  </g>
  <!-- Circle orbit hints for automation -->
  <g stroke="url(#grad1)" stroke-width="10" fill="none" opacity="0.55">
    <circle cx="512" cy="512" r="340"/>
    <path d="M 700 512 L 820 512"/>
    <path d="M 204 512 L 324 512"/>
  </g>
  <!-- Tiny move/copy/delete marks -->
  <g transform="translate(320,660)" stroke="url(#grad1)" stroke-width="18" fill="none" stroke-linecap="round" stroke-linejoin="round" opacity="0.9">
    <path d="M 0 0 L 120 0"/>
    <path d="M 100 -40 L 150 0 L 100 40"/>
    <rect x="210" y="-40" width="70" height="70" rx="12"/>
    <rect x="250" y="0" width="70" height="70" rx="12"/>
    <rect x="360" y="-25" width="80" height="60" rx="12"/>
    <path d="M 340 -25 H 460"/>
    <path d="M 372 -60 H 428"/>
  </g>
</svg>
